# xmcd CD database file
#
# Track frame offsets:
#	150
#	4915
#	23870
#	39600
#	54152
#	67798
#	82044
#	94342
#	107576
#	121349
#	138140
#	150591
#	164688
#	174103
#	187411
#	202560
#	219918
#
# Disc length: 3126 seconds
#
# Revision: 1
# Processed by: cddbd v1.5.2PL0 Copyright (c) Steve Scherf et al.
# Submitted via: CDex 1.72
#
DISCID=d60c3411
DTITLE=Mosaic [CDN-03-From The Roots Up-jazz) - From The Roots Up
DYEAR=2003
DGENRE=Jazz
TTITLE0=Everything'll Be Alright
TTITLE1=Take Five Medley
TTITLE2=Brand New Outfit
TTITLE3=Velo
TTITLE4=Dawn Lullaby
TTITLE5=I'm Tired
TTITLE6=One Night Stand
TTITLE7=Vibe
TTITLE8=I Stand Accused
TTITLE9=Change Of Heart
TTITLE10=By The Mountain
TTITLE11=In My Living Room
TTITLE12=Osama Who
TTITLE13=Harsh Life
TTITLE14=Chem Chem Khagha
TTITLE15=Growing Old
TTITLE16=The Ancients Walk Within Us
EXTD=YEAR: 2003
EXTT0=
EXTT1=
EXTT2=
EXTT3=
EXTT4=
EXTT5=
EXTT6=
EXTT7=
EXTT8=
EXTT9=
EXTT10=
EXTT11=
EXTT12=
EXTT13=
EXTT14=
EXTT15=
EXTT16=
PLAYORDER=
